<svg width="21" height="18" viewBox="0 0 21 18" fill="none" xmlns="http://www.w3.org/2000/svg">
<g id="Group">
<path id="Vector" d="M5.48593 14.129C3.64093 12.819 2.18093 11.115 1.35593 10.039C1.12523 9.74198 1 9.37659 1 9.0005C1 8.62441 1.12523 8.25902 1.35593 7.962C2.84893 6.013 6.43093 2 10.6129 2C12.4889 2 14.2429 2.807 15.7429 3.874" stroke="#BBBBBB" stroke-linecap="round" stroke-linejoin="round"/>
<path id="Vector_2" d="M12.7428 6.887C12.4651 6.60467 12.1342 6.38011 11.7693 6.22628C11.4044 6.07246 11.0126 5.99241 10.6166 5.99075C10.2206 5.98909 9.82813 6.06586 9.46192 6.21662C9.09572 6.36738 8.763 6.58916 8.48293 6.86915C8.20287 7.14915 7.98102 7.48183 7.83017 7.84799C7.67932 8.21416 7.60246 8.60657 7.60403 9.00258C7.60559 9.3986 7.68555 9.79039 7.83929 10.1554C7.99303 10.5203 8.21751 10.8512 8.49978 11.129" stroke="#BBBBBB" stroke-width="1.5" stroke-linecap="round" stroke-linejoin="round"/>
<path id="Vector_3" d="M2.61182 17L18.6118 1" stroke="#BBBBBB" stroke-linecap="round" stroke-linejoin="round"/>
<path id="Vector_4" d="M8.61182 15.704C9.26102 15.8972 9.93447 15.9969 10.6118 16C14.7938 16 18.3758 11.987 19.8688 10.038C20.0995 9.74071 20.2245 9.37509 20.2244 8.99883C20.2242 8.62256 20.0987 8.25707 19.8678 7.96C19.3431 7.27549 18.7802 6.62112 18.1818 6" stroke="#BBBBBB" stroke-linecap="round" stroke-linejoin="round"/>
</g>
</svg>
