<svg width="24" height="24" viewBox="0 0 24 24" fill="none" xmlns="http://www.w3.org/2000/svg">
<g id="icon/password">
<g id="Group">
<path id="Vector" d="M20.758 10.962C21.232 11.582 21.232 12.419 20.758 13.038C19.265 14.987 15.683 19 11.501 19C7.31899 19 3.73699 14.987 2.24399 13.038C2.01337 12.7411 1.88818 12.3759 1.88818 12C1.88818 11.6241 2.01337 11.2589 2.24399 10.962C3.73699 9.013 7.31899 5 11.501 5C15.683 5 19.265 9.013 20.758 10.962V10.962Z" stroke="#BBBBBB" stroke-linecap="round" stroke-linejoin="round"/>
<path id="Vector_2" d="M11.5 15C13.1569 15 14.5 13.6569 14.5 12C14.5 10.3431 13.1569 9 11.5 9C9.84315 9 8.5 10.3431 8.5 12C8.5 13.6569 9.84315 15 11.5 15Z" stroke="#BBBBBB" stroke-width="1.5" stroke-linecap="round" stroke-linejoin="round"/>
</g>
</g>
</svg>
